<svg width="105" height="32" viewBox="0 0 105 32" fill="none" xmlns="http://www.w3.org/2000/svg">
<path fill-rule="evenodd" clip-rule="evenodd" d="M51 12.4829V23.5296H53.3179H62.1714V20.637H53.3179V18.3034H62.1714V15.4108H53.3179V13.0772H62.1714V10.1846H53.3179H52.8418L51 12.4829ZM74.741 10.1846H67.0457L65.2073 12.4787V23.5296H67.5253V20.1592H74.2556V23.5296H76.5735V12.4714L74.741 10.1846ZM74.2556 13.0772H67.5253V17.2666H74.2556V13.0772ZM79.4698 23.5297V12.4821L81.311 10.1846H88.6322L90.4773 12.4872V23.5297H88.1595V13.0772H81.7878V23.5297H79.4698ZM93.4507 12.4264V23.5296L102.874 23.5297L104.706 21.2437V19.1227L102.89 16.857L104.706 14.5913V12.4706L102.874 10.1846H102.388H95.7687H95.2472L93.4507 12.4264ZM95.7687 13.0772V15.4108H102.388V13.0772H95.7687ZM95.7687 20.6371V18.3034H102.388V20.6371H95.7687Z" fill="white"/>
<path d="M0 12.5918L7.0797 18.9834C7.47356 18.3175 7.83104 17.684 8.1748 17.0748L8.17909 17.0672C8.46449 16.5614 8.7405 16.0722 9.02003 15.5949C11.5315 11.392 14.2293 7.48721 18.3432 5.62571C22.4569 3.76422 26.53 3.42246 30.4281 6.20017C32.9337 7.98168 34.8857 10.5194 34.8857 14.446C34.9032 22.6774 27.7944 26.5094 22.0024 23.9789C19.5218 23.0101 17.4459 20.8633 16.2222 18.0018L9.11913 22.5901C9.2506 22.8483 9.36798 23.0912 9.47889 23.3209C9.7022 23.7832 9.89944 24.1914 10.133 24.5607C11.3615 26.4916 12.8894 28.0935 14.6256 29.2704C16.3616 30.4475 18.2701 31.1753 20.2369 31.4104C25.3005 32.1012 29.962 30.6396 33.4581 25.3606C36.8435 20.1978 37.5544 12.0464 33.3474 6.8546C30.9332 3.84537 27.8563 1.80023 24.508 0.979253C21.2274 0.162856 17.8416 0.279672 14.6022 1.32101C9.8278 2.76643 5.4501 5.77912 1.92288 10.0468C1.49781 10.5529 1.10143 11.0949 0.670895 11.6835C0.458138 11.9744 0.237036 12.2767 0 12.5918Z" fill="white"/>
<path d="M25.9398 21.7869C29.9486 21.7869 33.1983 18.4764 33.1983 14.3926C33.1983 10.3089 29.9486 6.99834 25.9398 6.99834C21.9311 6.99834 18.6813 10.3089 18.6813 14.3926C18.6813 18.4764 21.9311 21.7869 25.9398 21.7869Z" fill="white"/>
</svg>
